<svg width="32" height="32" viewBox="0 0 32 32" fill="none" xmlns="http://www.w3.org/2000/svg">
<g id="Logo">
<g id="&#38;lt;R&#195;&#169;p&#195;&#169;tition radiale&#38;gt;">
<path id="Vector" d="M16.7049 16.705C16.7049 17.9181 16.7049 18.5985 16.7049 19.8116L28.25 31.3567C29.1078 32.2145 30.4989 32.2145 31.3567 31.3567C32.2144 30.4989 32.2144 29.1078 31.3567 28.25L19.8116 16.705C18.5985 16.705 17.9181 16.705 16.7049 16.705Z" fill="black"/>
</g>
<g id="&#38;lt;R&#195;&#169;p&#195;&#169;tition radiale&#38;gt;_2">
<path id="Vector_2" d="M16.7049 15.2951C17.9181 15.2951 18.5985 15.2951 19.8116 15.2951L31.3567 3.75C32.2144 2.89223 32.2144 1.5011 31.3567 0.643327C30.4989 -0.214442 29.1078 -0.214442 28.25 0.643327L16.7049 12.1884C16.7049 13.4015 16.7049 14.0819 16.7049 15.2951Z" fill="black"/>
</g>
<g id="&#38;lt;R&#195;&#169;p&#195;&#169;tition radiale&#38;gt;_3">
<path id="Vector_3" d="M15.2952 15.2951C15.2952 14.082 15.2952 13.4016 15.2952 12.1885L3.7501 0.643388C2.89233 -0.214381 1.5012 -0.214381 0.643427 0.643388C-0.214343 1.50116 -0.214343 2.89229 0.643427 3.75006L12.1885 15.2951C13.4016 15.2951 14.082 15.2951 15.2952 15.2951Z" fill="black"/>
</g>
<g id="&#38;lt;R&#195;&#169;p&#195;&#169;tition radiale&#38;gt;_4">
<path id="Vector_4" d="M15.2952 16.705C14.082 16.705 13.4016 16.705 12.1885 16.705L0.643427 28.25C-0.214343 29.1078 -0.214343 30.4989 0.643427 31.3567C1.5012 32.2145 2.89233 32.2145 3.7501 31.3567L15.2952 19.8116C15.2952 18.5985 15.2952 17.9181 15.2952 16.705Z" fill="black"/>
</g>
</g>
</svg>
